<svg width="164" height="37" viewBox="0 0 164 37" fill="none" xmlns="http://www.w3.org/2000/svg">
<path fill-rule="evenodd" clip-rule="evenodd" d="M38.2595 3.06231C37.3194 2.59016 36.1561 2.45101 34.8561 2.68749C34.0545 2.83388 33.2 3.12344 32.3138 3.56503C31.463 3.99053 30.6484 4.52381 29.8766 5.14235L33.0075 6.71566C33.7793 6.09712 34.5939 5.56383 35.4438 5.13914C36.33 4.69675 37.1836 4.40718 37.9861 4.26079C39.286 4.02431 40.4493 4.16346 41.3894 4.63562L38.2595 3.06231Z" fill="#F0A72E"/>
<mask id="mask0" mask-type="alpha" maskUnits="userSpaceOnUse" x="0" y="0" width="31" height="35">
<path fill-rule="evenodd" clip-rule="evenodd" d="M0 0.609131H30.3026V34.2347H0V0.609131Z" fill="white"/>
</mask>
<g mask="url(#mask0)">
<path fill-rule="evenodd" clip-rule="evenodd" d="M27.1726 1.17278C26.0865 0.626629 24.741 0.466564 23.2383 0.740042C22.3102 0.908955 21.3218 1.24356 20.2961 1.75593C18.5898 2.60854 16.9876 3.84724 15.5984 5.31195C13.0421 8.00732 11.2065 11.4676 10.7621 14.689C9.9949 14.8387 9.17288 15.1226 8.32948 15.5441C6.85841 16.2784 5.47754 17.345 4.28078 18.6062C1.71617 21.3064 -0.00968866 24.897 -0.000389854 28.0227C0.00797907 30.3022 0.93693 31.9069 2.43683 32.6606L5.56681 34.2347C4.06598 33.4802 3.13703 31.8755 3.12959 29.596C3.11936 26.4703 4.84615 22.8797 7.40983 20.1795C8.60752 18.9183 9.98746 17.8517 11.4595 17.1174C12.3019 16.6959 13.1249 16.412 13.8911 16.2623C14.3356 13.0409 16.1721 9.58063 18.7283 6.88526C20.1176 5.42054 21.7188 4.18185 23.4261 3.32924C24.4508 2.81687 25.4393 2.48226 26.3673 2.31335C27.8709 2.03906 29.2155 2.19993 30.3026 2.74609L27.1726 1.17278Z" fill="#F0A72E"/>
</g>
<path fill-rule="evenodd" clip-rule="evenodd" d="M23.4258 3.32946C28.2668 0.911587 32.2895 2.44467 33.0073 6.71576C33.7791 6.09722 34.5937 5.56393 35.4436 5.13924C40.0577 2.83478 43.8125 4.68559 43.8274 9.27117C43.8423 13.8576 40.1116 19.4462 35.4975 21.7506L11.5131 33.729C6.89254 36.0367 3.14419 34.1826 3.12932 29.5962C3.11444 25.0098 6.83768 19.4253 11.4583 17.1176C12.3026 16.6961 13.1246 16.4122 13.8908 16.2626C14.5771 11.2901 18.5774 5.75054 23.4258 3.32946Z" fill="#FFCA00"/>
<path fill-rule="evenodd" clip-rule="evenodd" d="M62.7052 5.31439C61.7651 4.84223 60.6018 4.70308 59.3018 4.93956C58.4993 5.08595 57.6457 5.37552 56.7586 5.8171C55.9087 6.2418 55.0941 6.77589 54.3223 7.39443L57.4523 8.96773C58.2241 8.34919 59.0387 7.8151 59.8895 7.39121C60.7748 6.94802 61.6293 6.65926 62.4309 6.51287C63.7318 6.27639 64.8941 6.41554 65.8342 6.88769L62.7052 5.31439Z" fill="#D43E3E"/>
<path fill-rule="evenodd" clip-rule="evenodd" d="M51.6138 3.41973C50.5277 2.87358 49.1822 2.71271 47.6795 2.98618C46.7515 3.1551 45.7649 3.48971 44.7411 4.00127C43.0403 4.85066 41.4428 6.08614 40.0563 7.54845C37.4982 10.2462 35.6589 13.713 35.2135 16.9376C34.4398 17.0904 33.6243 17.3711 32.7744 17.7958C31.3052 18.5294 29.9262 19.596 28.7294 20.8564C26.1648 23.5566 24.4353 27.1488 24.4455 30.2745C24.4529 32.5532 25.3837 34.1563 26.8827 34.9108L30.0127 36.4832C28.5128 35.7296 27.582 34.1265 27.5745 31.8478C27.5643 28.7221 29.2948 25.1299 31.8585 22.4297C33.0562 21.1685 34.4352 20.1027 35.9035 19.3691C36.7552 18.9444 37.5698 18.6637 38.3435 18.5109C38.7889 15.2855 40.6282 11.8195 43.1863 9.12175C44.5728 7.65945 46.1703 6.42397 47.871 5.57377C48.8939 5.06301 49.8814 4.7284 50.8085 4.55949C52.3122 4.28601 53.6568 4.44688 54.7438 4.99303L51.6138 3.41973Z" fill="#D43E3E"/>
<path fill-rule="evenodd" clip-rule="evenodd" d="M47.8706 5.57392C52.7116 3.15685 56.7352 4.69637 57.4521 8.96746C58.2239 8.34892 59.0385 7.81563 59.8893 7.39094C64.5034 5.08648 68.2573 6.93729 68.2722 11.5229C68.2871 16.1093 64.5573 21.6979 59.9433 24.0023L35.9579 35.9807C31.3448 38.2851 27.5899 36.4343 27.5751 31.8479C27.5602 27.2615 31.2899 21.6729 35.904 19.3685C36.7548 18.9446 37.5703 18.6639 38.3431 18.5102C39.0293 13.5386 43.0297 7.99179 47.8706 5.57392Z" fill="#FA7564"/>
<path d="M87.1597 26.24C86.3331 26.24 85.5597 26.0933 84.8397 25.8C84.1197 25.5067 83.4931 25.0733 82.9597 24.5C82.4397 23.9267 82.0264 23.22 81.7197 22.38C81.4131 21.54 81.2597 20.58 81.2597 19.5C81.2597 18.4333 81.4131 17.48 81.7197 16.64C82.0397 15.7867 82.4664 15.0667 82.9997 14.48C83.5464 13.8933 84.1797 13.4467 84.8997 13.14C85.6331 12.8333 86.4131 12.68 87.2397 12.68C88.0664 12.68 88.7997 12.8467 89.4397 13.18C90.0797 13.5133 90.6064 13.9 91.0197 14.34L89.7797 15.84C89.4331 15.4933 89.0597 15.22 88.6597 15.02C88.2597 14.8067 87.8064 14.7 87.2997 14.7C86.7664 14.7 86.2731 14.8133 85.8197 15.04C85.3797 15.2533 84.9931 15.5667 84.6597 15.98C84.3397 16.38 84.0864 16.8733 83.8997 17.46C83.7264 18.0467 83.6397 18.7067 83.6397 19.44C83.6397 20.9333 83.9597 22.1067 84.5997 22.96C85.2531 23.8 86.1331 24.22 87.2397 24.22C87.8264 24.22 88.3464 24.1 88.7997 23.86C89.2531 23.6067 89.6664 23.28 90.0397 22.88L91.2797 24.34C90.7464 24.9533 90.1331 25.4267 89.4397 25.76C88.7597 26.08 87.9997 26.24 87.1597 26.24ZM92.9134 26V16.18H95.2134V26H92.9134ZM94.0734 14.46C93.66 14.46 93.32 14.34 93.0534 14.1C92.7867 13.86 92.6534 13.5467 92.6534 13.16C92.6534 12.7733 92.7867 12.46 93.0534 12.22C93.32 11.9667 93.66 11.84 94.0734 11.84C94.4867 11.84 94.8267 11.9667 95.0934 12.22C95.36 12.46 95.4934 12.7733 95.4934 13.16C95.4934 13.5467 95.36 13.86 95.0934 14.1C94.8267 14.34 94.4867 14.46 94.0734 14.46ZM97.7979 26V16.18H99.6979L99.8579 17.92H99.9379C100.285 17.28 100.705 16.7933 101.198 16.46C101.691 16.1133 102.198 15.94 102.718 15.94C103.185 15.94 103.558 16.0067 103.838 16.14L103.438 18.14C103.265 18.0867 103.105 18.0467 102.958 18.02C102.811 17.9933 102.631 17.98 102.418 17.98C102.031 17.98 101.625 18.1333 101.198 18.44C100.771 18.7333 100.405 19.2533 100.098 20V26H97.7979ZM108.814 26.24C108.147 26.24 107.52 26.1267 106.934 25.9C106.36 25.6733 105.86 25.34 105.434 24.9C105.007 24.46 104.674 23.92 104.434 23.28C104.194 22.64 104.074 21.9133 104.074 21.1C104.074 20.2867 104.207 19.56 104.474 18.92C104.74 18.28 105.1 17.74 105.554 17.3C106.007 16.86 106.527 16.5267 107.114 16.3C107.714 16.06 108.34 15.94 108.994 15.94C109.634 15.94 110.18 16.0467 110.634 16.26C111.1 16.4733 111.514 16.7333 111.874 17.04L110.754 18.54C110.487 18.3133 110.22 18.14 109.954 18.02C109.7 17.8867 109.42 17.82 109.114 17.82C108.314 17.82 107.667 18.12 107.174 18.72C106.68 19.3067 106.434 20.1 106.434 21.1C106.434 22.0867 106.674 22.88 107.154 23.48C107.647 24.0667 108.28 24.36 109.054 24.36C109.44 24.36 109.8 24.28 110.134 24.12C110.48 23.9467 110.794 23.7467 111.074 23.52L112.014 25.04C111.547 25.44 111.034 25.74 110.474 25.94C109.927 26.14 109.374 26.24 108.814 26.24ZM115.842 26.24C115.016 26.24 114.436 25.9933 114.102 25.5C113.769 25.0067 113.602 24.3333 113.602 23.48V11.88H115.902V23.6C115.902 23.88 115.956 24.08 116.062 24.2C116.169 24.3067 116.282 24.36 116.402 24.36C116.456 24.36 116.502 24.36 116.542 24.36C116.596 24.36 116.669 24.3467 116.762 24.32L117.062 26.04C116.756 26.1733 116.349 26.24 115.842 26.24ZM122.882 26.24C122.202 26.24 121.569 26.1267 120.982 25.9C120.395 25.66 119.882 25.32 119.442 24.88C119.002 24.44 118.655 23.9067 118.402 23.28C118.162 22.64 118.042 21.9133 118.042 21.1C118.042 20.3 118.169 19.58 118.422 18.94C118.675 18.3 119.009 17.76 119.422 17.32C119.849 16.88 120.335 16.54 120.882 16.3C121.429 16.06 121.989 15.94 122.562 15.94C123.229 15.94 123.815 16.0533 124.322 16.28C124.829 16.5067 125.249 16.8267 125.582 17.24C125.929 17.6533 126.189 18.1467 126.362 18.72C126.535 19.2933 126.622 19.92 126.622 20.6C126.622 20.8267 126.609 21.04 126.582 21.24C126.569 21.44 126.549 21.6 126.522 21.72H120.282C120.389 22.6 120.695 23.28 121.202 23.76C121.722 24.2267 122.382 24.46 123.182 24.46C123.609 24.46 124.002 24.4 124.362 24.28C124.735 24.1467 125.102 23.9667 125.462 23.74L126.242 25.18C125.775 25.4867 125.255 25.74 124.682 25.94C124.109 26.14 123.509 26.24 122.882 26.24ZM120.262 20.16H124.622C124.622 19.4 124.455 18.8067 124.122 18.38C123.802 17.94 123.302 17.72 122.622 17.72C122.035 17.72 121.522 17.9267 121.082 18.34C120.642 18.7533 120.369 19.36 120.262 20.16ZM133.569 26.24C132.809 26.24 132.122 26.1333 131.509 25.92C130.909 25.6933 130.389 25.34 129.949 24.86C129.522 24.38 129.189 23.7667 128.949 23.02C128.722 22.26 128.609 21.34 128.609 20.26V12.92H130.929V20.44C130.929 21.1467 130.989 21.7467 131.109 22.24C131.242 22.72 131.422 23.1067 131.649 23.4C131.889 23.6933 132.169 23.9067 132.489 24.04C132.809 24.16 133.169 24.22 133.569 24.22C133.969 24.22 134.336 24.16 134.669 24.04C135.002 23.9067 135.289 23.6933 135.529 23.4C135.769 23.1067 135.956 22.72 136.089 22.24C136.222 21.7467 136.289 21.1467 136.289 20.44V12.92H138.509V20.26C138.509 21.34 138.396 22.26 138.169 23.02C137.942 23.7667 137.609 24.38 137.169 24.86C136.742 25.34 136.222 25.6933 135.609 25.92C135.009 26.1333 134.329 26.24 133.569 26.24ZM141.425 26V12.92H145.545C146.265 12.92 146.931 12.9867 147.545 13.12C148.171 13.2533 148.711 13.48 149.165 13.8C149.618 14.12 149.971 14.54 150.225 15.06C150.478 15.5667 150.605 16.2 150.605 16.96C150.605 17.68 150.478 18.3067 150.225 18.84C149.971 19.3733 149.618 19.82 149.165 20.18C148.725 20.5267 148.198 20.7867 147.585 20.96C146.985 21.12 146.331 21.2 145.625 21.2H143.745V26H141.425ZM143.745 19.34H145.445C147.365 19.34 148.325 18.5467 148.325 16.96C148.325 16.1333 148.071 15.5667 147.565 15.26C147.071 14.94 146.338 14.78 145.365 14.78H143.745V19.34Z" fill="white"/>
</svg>
